<svg xmlns="http://www.w3.org/2000/svg" viewBox="0 0 64 64" role="img" aria-label="AutoEssa car icon">
  <defs>
    <linearGradient id="carBody" x1="0" y1="0" x2="1" y2="1">
      <stop offset="0%" stop-color="#f59e0b" />
      <stop offset="100%" stop-color="#d97706" />
    </linearGradient>
  </defs>
  <rect width="64" height="64" rx="14" fill="#111827" />
  <path d="M12 39c0-3 1.8-5.5 4.5-6.4l4.6-9.2c1-2.1 3.1-3.4 5.4-3.4h10.8c2.5 0 4.8 1.4 5.9 3.7l4.1 8.6c2.7 1 4.7 3.5 4.7 6.4v5h-4.4a6.8 6.8 0 0 1-13.2 0H29a6.8 6.8 0 0 1-13.2 0H12v-5Z" fill="url(#carBody)"/>
  <path d="M22 25.5h15.4c1.1 0 2.1.6 2.6 1.6l2.1 4.5H18.5l2.2-4.3c.4-1.1 1.3-1.8 2.3-1.8Z" fill="#fde68a" opacity="0.9"/>
  <circle cx="22.4" cy="43.2" r="4.4" fill="#e5e7eb"/>
  <circle cx="22.4" cy="43.2" r="2.1" fill="#374151"/>
  <circle cx="41.8" cy="43.2" r="4.4" fill="#e5e7eb"/>
  <circle cx="41.8" cy="43.2" r="2.1" fill="#374151"/>
</svg>
